PathFileType	4	(X/Y/Z)	/Users/itak/Documents/Research/Walk-IL/dataset/trc/00108_00007.trc
DataRate	CameraRate	NumFrames	NumMarkers	Units	OrigDataRate	OrigDataStartFrame	OrigNumFrames
100.000000	100.000000	4	53	mm	100.000000	260	520
Frame#	Time	RPSI			LPSI			L3			STRN			T10			C7			CLAV			RBAK			LBAK			LSHO			LUPA			LAEL			LAOL			LWTS			LWPS			LFRA			LIFD			LHPS			LHTS			RSHO			RUPA			RAEL			RAOL			RWTS			RWPS			RFRA			RIFD			RHTS			RHPS			RBHD			LFHD			RFHD			LBHD			LHIP			RHIP			RASI			LASI			LKNE			LTHI			LANK			LTIP			LTOE			LMT1			LMT5			LHEE			RKNE			RTHI			RANK			RTIP			RTOE			RMT1			RMT5			RHEE			
		X1	Y1	Z1	X2	Y2	Z2	X3	Y3	Z3	X4	Y4	Z4	X5	Y5	Z5	X6	Y6	Z6	X7	Y7	Z7	X8	Y8	Z8	X9	Y9	Z9	X10	Y10	Z10	X11	Y11	Z11	X12	Y12	Z12	X13	Y13	Z13	X14	Y14	Z14	X15	Y15	Z15	X16	Y16	Z16	X17	Y17	Z17	X18	Y18	Z18	X19	Y19	Z19	X20	Y20	Z20	X21	Y21	Z21	X22	Y22	Z22	X23	Y23	Z23	X24	Y24	Z24	X25	Y25	Z25	X26	Y26	Z26	X27	Y27	Z27	X28	Y28	Z28	X29	Y29	Z29	X30	Y30	Z30	X31	Y31	Z31	X32	Y32	Z32	X33	Y33	Z33	X34	Y34	Z34	X35	Y35	Z35	X36	Y36	Z36	X37	Y37	Z37	X38	Y38	Z38	X39	Y39	Z39	X40	Y40	Z40	X41	Y41	Z41	X42	Y42	Z42	X43	Y43	Z43	X44	Y44	Z44	X45	Y45	Z45	X46	Y46	Z46	X47	Y47	Z47	X48	Y48	Z48	X49	Y49	Z49	X50	Y50	Z50	X51	Y51	Z51	X52	Y52	Z52	X53	Y53	Z53	

261	2.6	-249.6027069091797	1103.163696289062	-260.3429565429688	-232.7216949462891	1109.470092773438	-394.9513549804688	-245.7515716552734	1145.786743164062	-328.6602783203125	-7.920723915100098	1329.882080078125	-295.2301940917969	-259.605712890625	1298.944458007812	-321.3640747070312	-202.1649780273438	1587.931030273438	-331.7211303710938	-31.87095832824707	1467.322143554688	-304.1035461425781	-276.58056640625	1410.03466796875	-247.3192749023438	-201.8543701171875	1567.658569335938	-433.2522888183594	-110.4802780151367	1546.793334960938	-492.0563354492188	-133.2468109130859	1418.144653320312	-565.4689331054688	-131.8640289306641	1202.734497070312	-598.0104370117188	-199.4740905761719	1188.374267578125	-541.8466186523438	-28.9538688659668	947.3161010742188	-572.0684204101562	-111.2811126708984	919.6217041015625	-597.0700073242188	-117.2247161865234	1087.527099609375	-608.9353637695312	-12.1873836517334	753.2341918945312	-561.6591186523438	-79.97548675537109	846.206298828125	-603.9810791015625	-11.42111587524414	859.9955444335938	-589.45849609375	-165.2522125244141	1568.622314453125	-145.2505187988281	-190.2125244140625	1496.541870117188	-82.21968841552734	-206.0494842529297	1201.039428710938	-57.50169372558594	-202.0742034912109	1197.43603515625	-154.53759765625	-39.1539421081543	975.9009399414062	-43.50253295898438	-114.1034698486328	950.066162109375	-23.09384536743164	-178.9524536132812	1129.384643554688	-37.84339904785156	13.01302242279053	786.1476440429688	-42.9061393737793	2.287601709365845	873.3338623046875	-26.95951843261719	-66.49629974365234	857.3170166015625	-7.495024681091309	-169.4438934326172	1753.485595703125	-251.9855804443359	-18.06201362609863	1817.9287109375	-397.3997802734375	-13.1235876083374	1837.284057617188	-269.7923278808594	-182.0961608886719	1737.68701171875	-386.5577392578125	-123.6666564941406	1025.336547851562	-493.5852966308594	-144.1906280517578	999.3635864257812	-126.8737716674805	-54.31707000732422	1069.8154296875	-165.5271759033203	-24.38070297241211	1080.572265625	-428.1617736816406	55.39138031005859	556.3529052734375	-466.0581665039062	-16.95283699035645	683.2793579101562	-496.9120788574219	116.6235733032227	40.60588073730469	-479.6857299804688	45.33113479614258	290.8883972167969	-504.4606323242188	333.1057434082031	104.7050018310547	-420.0714416503906	256.6397705078125	89.69001770019531	-386.6974182128906	238.6930541992188	68.22185516357422	-499.9151306152344	47.41107177734375	24.48294639587402	-420.2919921875	-159.6449432373047	505.1140441894531	-187.1822967529297	-129.3991546630859	784.9027709960938	-142.9632110595703	-436.1275024414062	56.48899841308594	-216.7398376464844	-228.1570434570312	380.3745422363281	-179.4388275146484	-202.7594757080078	39.48167419433594	-249.4530639648438	-259.9344177246094	31.17329978942871	-295.342041015625	-305.1830139160156	40.11682510375977	-182.750244140625	-489.8413696289062	74.26301574707031	-269.1900024414062	
262	2.61	-259.4652404785156	1103.384765625	-258.5115661621094	-242.7551879882812	1109.478637695312	-393.0517272949219	-255.8267059326172	1146.20263671875	-326.9204711914062	-17.15103149414062	1329.777465820312	-293.8382568359375	-268.9556274414062	1299.6064453125	-319.97412109375	-210.2843933105469	1588.360473632812	-329.8266906738281	-40.39731216430664	1467.371215820312	-302.4863891601562	-285.225341796875	1410.60595703125	-245.6098937988281	-210.0029144287109	1568.353759765625	-431.3855590820312	-118.6923217773438	1547.469482421875	-490.2981567382812	-141.9404907226562	1418.875610351562	-563.715087890625	-141.72021484375	1203.416381835938	-596.0123291015625	-209.0620574951172	1189.470092773438	-539.4827270507812	-40.88586044311523	946.9021606445312	-570.257568359375	-123.2949295043945	920.1520385742188	-595.0045776367188	-127.887809753418	1088.112915039062	-606.9759521484375	-25.43241119384766	752.9365844726562	-559.97607421875	-92.6424560546875	846.447509765625	-602.0478515625	-23.98678970336914	859.560546875	-587.7102661132812	-173.3583068847656	1568.6748046875	-143.4517517089844	-198.3336181640625	1496.678588867188	-80.39432525634766	-214.2901916503906	1201.255859375	-55.10242080688477	-210.8462524414062	1197.51318359375	-152.185302734375	-46.5230827331543	976.656005859375	-41.72903823852539	-121.2067184448242	950.5989379882812	-20.73597526550293	-186.8585205078125	1129.6494140625	-35.43963241577148	6.285881519317627	787.083740234375	-41.25214385986328	-4.627837657928467	874.2379760742188	-25.34821701049805	-73.18091583251953	858.02099609375	-5.302089214324951	-177.0349426269531	1753.535278320312	-249.6529998779297	-25.94586753845215	1817.85107421875	-395.254150390625	-20.80404472351074	1837.135620117188	-267.6300354003906	-189.927490234375	1737.754638671875	-384.2182006835938	-134.1638488769531	1025.016357421875	-491.7272644042969	-154.062255859375	999.7796630859375	-125.2475967407227	-64.09577178955078	1070.058227539062	-164.0084381103516	-34.62396621704102	1080.455810546875	-426.7338562011719	47.09371948242188	556.9232177734375	-465.3824462890625	-26.53472328186035	683.4130859375	-496.0176391601562	110.4475021362305	41.48931884765625	-478.5057067871094	37.0943603515625	291.2784118652344	-502.9362487792969	327.0447692871094	108.6243362426758	-423.4818725585938	251.5636596679688	92.73446655273438	-388.5157775878906	231.7420043945312	70.77191162109375	-501.2955932617188	42.88107299804688	24.16997146606445	-417.7018127441406	-167.4889068603516	505.5766296386719	-185.9818420410156	-138.8690643310547	785.2510375976562	-141.1555328369141	-436.9855346679688	53.61368942260742	-218.1108703613281	-234.1940002441406	379.9362487792969	-178.9609527587891	-202.6271820068359	39.41754531860352	-249.3834381103516	-259.954345703125	30.74142456054688	-295.5337524414062	-305.7288208007812	40.08469009399414	-183.1651763916016	-490.8125	69.94290161132812	-270.9833984375	
263	2.62	-269.1424560546875	1103.629272460938	-256.7268371582031	-252.6093139648438	1109.571899414062	-391.2159729003906	-265.7218933105469	1146.695434570312	-325.2288818359375	-26.25674247741699	1329.802368164062	-292.5343322753906	-278.2164916992188	1300.338500976562	-318.6984252929688	-218.3774108886719	1588.872680664062	-328.0677795410156	-48.84942626953125	1467.541748046875	-300.9782104492188	-293.8228149414062	1411.247192382812	-244.0439300537109	-218.0961303710938	1569.112426757812	-429.6515808105469	-126.8265228271484	1548.230224609375	-488.666015625	-150.5506591796875	1419.687744140625	-562.084228515625	-151.5983428955078	1204.157958984375	-594.1271362304688	-218.6331024169922	1190.648803710938	-537.2039184570312	-52.80171966552734	946.5953979492188	-568.4835815429688	-135.3076629638672	920.7435913085938	-592.9419555664062	-138.5991363525391	1088.7509765625	-605.0739135742188	-38.64886474609375	752.7468872070312	-558.1436157226562	-105.2799606323242	846.7495727539062	-600.0374145507812	-36.58246231079102	859.1693725585938	-585.8721313476562	-181.4435729980469	1568.81787109375	-141.7813415527344	-206.4441223144531	1496.904907226562	-78.70404052734375	-222.6371917724609	1201.587646484375	-52.80330657958984	-219.7078094482422	1197.680297851562	-149.9371795654297	-54.11861801147461	977.4633178710938	-39.96281051635742	-128.5483245849609	951.2199096679688	-18.42825508117676	-194.9371643066406	1130.020263671875	-33.12913131713867	-0.7591758370399475	788.0433349609375	-39.61416625976562	-11.82580280303955	875.1671142578125	-23.74725532531738	-80.16146087646484	858.7887573242188	-3.157528400421143	-184.6090393066406	1753.72607421875	-247.4329528808594	-33.71701812744141	1817.912231445312	-393.1981811523438	-28.49176979064941	1837.029663085938	-265.4870910644531	-197.7425842285156	1738.000732421875	-382.0110473632812	-144.4204711914062	1024.803100585938	-489.9508972167969	-163.6562957763672	1000.244812011719	-123.6978225708008	-73.64955139160156	1070.405395507812	-162.5544891357422	-44.64281463623047	1080.444458007812	-425.37158203125	39.09114074707031	557.5105590820312	-464.7372741699219	-35.83202362060547	683.6419067382812	-495.205078125	102.8016204833984	42.21687698364258	-477.0528259277344	28.45266342163086	291.6917724609375	-501.2261047363281	320.0019226074219	110.8595809936523	-427.3458862304688	245.5483551025391	94.69875335693359	-390.5742492675781	223.3257141113281	72.26369476318359	-502.7936706542969	37.02357864379883	24.36652183532715	-414.6253967285156	-174.9511108398438	506.1201171875	-184.9099578857422	-147.9618530273438	785.6756591796875	-139.5104675292969	-437.6866149902344	51.02299118041992	-219.2245330810547	-239.8540496826172	379.6177368164062	-178.5195159912109	-202.5492553710938	39.37047958374023	-249.3257141113281	-259.9839477539062	30.35711479187012	-295.6966857910156	-306.1795654296875	40.0546875	-183.5054931640625	-491.5975646972656	66.02581787109375	-272.4359741210938	
264	2.63	-278.6191711425781	1103.924560546875	-255.0077362060547	-262.2798156738281	1109.772705078125	-389.4646301269531	-275.4122009277344	1147.270385742188	-323.597900390625	-35.21086120605469	1329.951538085938	-291.3113708496094	-287.3874816894531	1301.150146484375	-317.5313415527344	-226.4243469238281	1589.467041015625	-326.4447021484375	-57.21987533569336	1467.822875976562	-299.5718383789062	-302.3688659667969	1411.962890625	-242.6255187988281	-226.1172790527344	1569.92529296875	-428.052978515625	-134.873046875	1549.028198242188	-487.1590576171875	-159.0754699707031	1420.529296875	-560.5640258789062	-161.4545288085938	1204.912963867188	-592.3660888671875	-228.1726684570312	1191.853881835938	-535.0462646484375	-64.64789581298828	946.3786010742188	-566.7666015625	-147.2773284912109	921.353759765625	-590.919189453125	-149.3149871826172	1089.394775390625	-603.2450561523438	-51.79482269287109	752.623779296875	-556.1926879882812	-117.8439331054688	847.0700073242188	-597.9863891601562	-49.1569709777832	858.8002319335938	-583.977783203125	-189.5050506591797	1569.041381835938	-140.2317504882812	-214.5547943115234	1497.204833984375	-77.14978790283203	-231.0829620361328	1202.007446289062	-50.61608123779297	-228.6385955810547	1197.914672851562	-147.8032379150391	-61.94009399414062	978.2980346679688	-38.20678329467773	-136.1385192871094	951.8992309570312	-16.18451499938965	-203.1844635009766	1130.469360351562	-30.92725944519043	-8.095548629760742	789.0148315429688	-37.95106887817383	-19.29631042480469	876.1104125976562	-22.13029289245605	-87.44000244140625	859.5985717773438	-1.054348707199097	-192.173583984375	1754.042846679688	-245.3349456787109	-41.39139175415039	1818.11279296875	-391.2358093261719	-36.20014953613281	1836.9775390625	-263.3704833984375	-205.5363922119141	1738.414306640625	-379.9449768066406	-154.4232482910156	1024.720336914062	-488.2746887207031	-172.9647064208984	1000.770446777344	-122.2320556640625	-82.95491027832031	1070.8515625	-161.1719970703125	-54.43419647216797	1080.548828125	-424.0745544433594	31.44145202636719	558.1463012695312	-464.1012573242188	-44.768798828125	684.0057373046875	-494.453857421875	93.59047698974609	42.79505157470703	-475.3634338378906	19.36928367614746	292.1603393554688	-499.3409118652344	311.8395385742188	111.4692153930664	-431.5620422363281	238.4368896484375	95.57490539550781	-392.8231506347656	213.3421325683594	72.76068115234375	-504.3634033203125	29.67815399169922	25.02081298828125	-411.1663513183594	-182.1094665527344	506.7518920898438	-183.9616088867188	-156.6711883544922	786.18798828125	-138.0266723632812	-438.2603759765625	48.68441772460938	-220.1082611083984	-245.2196655273438	379.4281311035156	-178.1150512695312	-202.5142974853516	39.34279251098633	-249.2759704589844	-260.015380859375	30.03398132324219	-295.8305358886719	-306.5450439453125	40.02288818359375	-183.7781982421875	-492.2382507324219	62.47292327880859	-273.5865478515625	
